<svg width="128" height="30" viewBox="0 0 128 30" fill="none" xmlns="http://www.w3.org/2000/svg">
<path d="M99.0735 11.4052L99.0689 11.516C98.9892 13.2724 98.373 14.6815 97.2374 15.704C95.2294 17.5123 92.2717 17.36 91.5077 17.3508C91.4996 17.3508 91.375 17.3508 91.3681 17.3508V9.16757C91.405 9.16757 91.5573 9.16757 91.5954 9.16641C93.0287 9.15718 94.6974 9.02793 94.9755 12.6066L94.9836 12.7127H95.2594V5.25774H94.9871L94.9755 5.36044C94.6086 8.75558 92.8937 8.74173 91.4962 8.74519C91.4915 8.74519 91.3715 8.74519 91.3681 8.74519V0.94284C91.5527 0.941686 91.8551 0.939378 92.0409 0.935916C94.6767 0.895525 97.2882 0.62433 98.3995 6.23173L98.418 6.32521H98.6984V0.507773H83.5473V0.90822H84.8882V13.1847C84.8559 14.9481 84.1658 16.0305 83.5599 16.6041C82.8283 17.2977 81.8035 17.6612 80.8768 17.6289C77.4586 17.5054 77.3628 14.0676 77.3605 13.9187V0.90822H78.9173V0.507773H72.8621V0.90822H74.4685L74.4639 12.4808C74.4639 15.6451 76.0715 18.0859 80.7661 18.0859C83.9142 18.0859 85.3591 15.4708 85.3268 13.3024V0.90822H86.7543V0.910527H88.4472V17.345H86.9193V17.7581H99.3897V11.4052H99.0735Z" fill="black"/>
<path d="M67.5363 10.3758V10.7774H68.9304V14.3745C68.9281 17.0611 67.1463 17.6589 65.7487 17.6866C64.2404 17.7108 63.2295 16.9722 62.6571 15.4385C62.0928 13.9429 61.7951 12.4992 61.7951 9.13756C61.7951 7.94084 61.9797 4.016 62.8637 2.29882C63.1995 1.65141 63.825 0.447761 65.6899 0.447761C65.6957 0.447761 65.7014 0.447761 65.7072 0.447761C67.9806 0.456993 69.287 2.03108 70.3464 6.25135L70.3683 6.33905H70.6257V0H70.3775L70.3475 0.0715495C70.1052 0.652023 69.527 0.778966 69.0285 0.767426C68.7907 0.758194 68.5738 0.723573 68.4145 0.69126C68.2737 0.660102 68.1837 0.631251 68.1791 0.630097C67.9599 0.560856 67.766 0.495076 67.5883 0.436221C67.5075 0.408524 67.429 0.385444 67.3505 0.363518C66.777 0.173104 66.3488 0.0519311 65.6853 0.0519311C62.6964 0.0519311 58.5834 3.08932 58.5834 9.35567C58.5834 14.4738 61.6577 18.0882 65.8538 18.0882C66.635 18.0882 67.2801 17.832 67.8871 17.5504C68.0002 17.5042 68.1122 17.4569 68.2195 17.4061C68.8127 17.1246 69.3747 16.858 70.0071 16.8245C70.0325 16.8234 70.0579 16.8234 70.0833 16.8222C70.1006 16.8222 70.1179 16.821 70.1363 16.821C70.5022 16.821 71.2361 17.0576 71.3781 17.7616L71.3965 17.8539L71.6423 17.8551V10.7797H72.9625V10.3781H67.5363V10.3758Z" fill="black"/>
<path d="M49.6859 0.0888621C46.1407 0.0888621 42.2563 3.63172 42.2563 9.04062C42.2563 14.4495 46.2688 18.0397 49.6859 18.0397C53.1041 18.0397 57.1155 14.4495 57.1155 9.04062C57.1166 3.63172 53.231 0.0888621 49.6859 0.0888621ZM53.8288 8.37591C53.83 8.41514 53.8311 8.45438 53.8311 8.49246C53.8323 8.52131 53.8323 8.54901 53.8323 8.57786C53.8323 8.59979 53.8334 8.62287 53.8334 8.6448C53.8334 8.68057 53.8346 8.71519 53.8346 8.74866C53.8346 8.76135 53.8346 8.7752 53.8346 8.78789C53.8346 8.82482 53.8357 8.85944 53.8357 8.89406C53.8357 8.9033 53.8357 8.91253 53.8357 8.92176C53.8357 8.9633 53.8357 9.00254 53.8357 9.04062C53.8357 9.07063 53.8357 9.10294 53.8357 9.13641C53.8311 10.1369 53.7469 14.0052 52.7337 15.9336C52.1624 17.0507 51.0326 17.6416 49.6859 17.6416C48.3391 17.6416 47.2093 17.0507 46.6369 15.9325C45.6237 14.0052 45.5395 10.1358 45.5349 9.13641C45.5349 9.10294 45.5349 9.07063 45.5349 9.04062C45.5349 9.0037 45.5349 8.96446 45.5349 8.92176C45.5349 8.91253 45.5349 8.9033 45.5349 8.89406C45.5349 8.85944 45.5348 8.82482 45.536 8.78789C45.536 8.7752 45.536 8.76135 45.536 8.74866C45.536 8.71519 45.5372 8.68057 45.5372 8.6448C45.5372 8.62287 45.5383 8.59979 45.5383 8.57786C45.5383 8.55016 45.5395 8.52131 45.5395 8.49246C45.5406 8.45438 45.5406 8.41514 45.5418 8.37591C45.5418 8.36206 45.5429 8.34821 45.5429 8.33436C45.5822 6.79259 45.7749 3.89599 46.6369 2.1938C47.3363 0.783584 48.7338 0.488154 49.687 0.488154C50.6391 0.488154 52.0366 0.784739 52.7348 2.19611C53.5969 3.89714 53.7884 6.79374 53.8277 8.33552C53.8277 8.34821 53.8288 8.36206 53.8288 8.37591Z" fill="black"/>
<path d="M40.3464 0.510084V0.905914H41.7577L37.9933 13.5021L33.4476 0.905914H34.7378V0.675109H34.739V0.510084H29V0.905914H30.6618L37.0297 17.8516H37.1209L42.1928 0.905914H43.7473V0.510084H40.3464Z" fill="black"/>
<path d="M50.336 29.8518V22.0313H51.7524V29.8518H50.336Z" fill="black"/>
<path d="M60.301 30L55.6407 24.7467H55.5981V29.8518H54.2668V21.883H54.669L59.3411 27.1143H59.3836V22.0313H60.7047V30H60.301Z" fill="black"/>
<path d="M65.7656 29.8518H63.2189V22.0313H65.6716C66.7607 22.0313 68.1449 22.2221 69.0637 23.4477C69.5922 24.1552 69.8358 25.0006 69.8358 25.9312C69.8343 28.2034 68.4928 29.8518 65.7656 29.8518ZM67.8587 24.1449C67.4462 23.6488 66.7916 23.2789 65.7656 23.2789H64.6339V28.6056H65.7538C67.5299 28.6056 68.4179 27.559 68.4179 25.9532C68.4179 25.2869 68.2388 24.641 67.8587 24.1449Z" fill="black"/>
<path d="M72.0215 29.8518V22.0313H73.4379V29.8518H72.0215Z" fill="black"/>
<path d="M81.4169 29.8518L80.6874 28.0977H77.5801L76.8403 29.8518H75.3182L78.9965 21.861H79.3136L82.9493 29.8518H81.4169ZM79.1448 24.4297L77.972 26.9983H80.297L79.1448 24.4297Z" fill="black"/>
</svg>
